<mxfile host="app.diagrams.net" agent="Mozilla/5.0 (X11; Linux x86_64) AppleWebKit/537.36 (KHTML, like Gecko) Chrome/127.0.0.0 Safari/537.36" version="24.7.16">
  <diagram name="第 1 页" id="bQ962o_VUr6lwi3HZ9Mi">
    <mxGraphModel dx="1364" dy="759" grid="1" gridSize="10" guides="1" tooltips="1" connect="1" arrows="1" fold="1" page="1" pageScale="1" pageWidth="827" pageHeight="1169" math="0" shadow="0">
      <root>
        <mxCell id="0" />
        <mxCell id="1" parent="0" />
        <mxCell id="SeMHUKeHQdmYT7gcVWek-1" value="" style="rounded=0;whiteSpace=wrap;html=1;fillColor=#E6D0DE;" vertex="1" parent="1">
          <mxGeometry x="320" y="120" width="200" height="280" as="geometry" />
        </mxCell>
        <mxCell id="SeMHUKeHQdmYT7gcVWek-2" value="" style="rounded=0;whiteSpace=wrap;html=1;fillColor=#FFF2CC;" vertex="1" parent="1">
          <mxGeometry x="40" y="120" width="200" height="280" as="geometry" />
        </mxCell>
        <mxCell id="SeMHUKeHQdmYT7gcVWek-3" value="" style="edgeStyle=orthogonalEdgeStyle;rounded=0;orthogonalLoop=1;jettySize=auto;html=1;" edge="1" parent="1" source="SeMHUKeHQdmYT7gcVWek-4" target="SeMHUKeHQdmYT7gcVWek-6">
          <mxGeometry x="260" y="200" as="geometry" />
        </mxCell>
        <mxCell id="SeMHUKeHQdmYT7gcVWek-4" value="nn.Conv2d" style="rounded=0;whiteSpace=wrap;html=1;" vertex="1" parent="1">
          <mxGeometry x="80" y="160" width="120" height="40" as="geometry" />
        </mxCell>
        <mxCell id="SeMHUKeHQdmYT7gcVWek-5" value="" style="edgeStyle=orthogonalEdgeStyle;rounded=0;orthogonalLoop=1;jettySize=auto;html=1;" edge="1" parent="1" source="SeMHUKeHQdmYT7gcVWek-6" target="SeMHUKeHQdmYT7gcVWek-7">
          <mxGeometry x="260" y="280" as="geometry" />
        </mxCell>
        <mxCell id="SeMHUKeHQdmYT7gcVWek-6" value="nn.BatchNorm2d" style="rounded=0;whiteSpace=wrap;html=1;" vertex="1" parent="1">
          <mxGeometry x="80" y="240" width="120" height="40" as="geometry" />
        </mxCell>
        <mxCell id="SeMHUKeHQdmYT7gcVWek-7" value="nn.SiLU" style="rounded=0;whiteSpace=wrap;html=1;" vertex="1" parent="1">
          <mxGeometry x="80" y="320" width="120" height="40" as="geometry" />
        </mxCell>
        <mxCell id="SeMHUKeHQdmYT7gcVWek-8" value="Conv" style="text;html=1;strokeColor=none;fillColor=none;align=center;verticalAlign=middle;whiteSpace=wrap;rounded=0;" vertex="1" parent="1">
          <mxGeometry x="120" y="370" width="40" height="20" as="geometry" />
        </mxCell>
        <mxCell id="SeMHUKeHQdmYT7gcVWek-9" value="" style="edgeStyle=orthogonalEdgeStyle;rounded=0;orthogonalLoop=1;jettySize=auto;html=1;" edge="1" parent="1" source="SeMHUKeHQdmYT7gcVWek-10" target="SeMHUKeHQdmYT7gcVWek-14">
          <mxGeometry x="540" y="200" as="geometry" />
        </mxCell>
        <mxCell id="SeMHUKeHQdmYT7gcVWek-10" value="Conv" style="rounded=0;whiteSpace=wrap;html=1;fillColor=#FFF2CC;" vertex="1" parent="1">
          <mxGeometry x="360" y="160" width="120" height="40" as="geometry" />
        </mxCell>
        <mxCell id="SeMHUKeHQdmYT7gcVWek-11" value="" style="edgeStyle=orthogonalEdgeStyle;rounded=0;orthogonalLoop=1;jettySize=auto;html=1;" edge="1" parent="1" source="SeMHUKeHQdmYT7gcVWek-12" target="SeMHUKeHQdmYT7gcVWek-4">
          <mxGeometry x="260" y="100" as="geometry">
            <mxPoint x="140" y="120" as="targetPoint" />
          </mxGeometry>
        </mxCell>
        <mxCell id="SeMHUKeHQdmYT7gcVWek-12" value="x" style="text;html=1;strokeColor=none;align=center;verticalAlign=middle;whiteSpace=wrap;rounded=0;fillColor=#FF3333;" vertex="1" parent="1">
          <mxGeometry x="120" y="80" width="40" height="20" as="geometry" />
        </mxCell>
        <mxCell id="SeMHUKeHQdmYT7gcVWek-13" value="" style="edgeStyle=orthogonalEdgeStyle;rounded=0;orthogonalLoop=1;jettySize=auto;html=1;" edge="1" parent="1" source="SeMHUKeHQdmYT7gcVWek-14" target="SeMHUKeHQdmYT7gcVWek-17">
          <mxGeometry x="540" y="280" as="geometry" />
        </mxCell>
        <mxCell id="SeMHUKeHQdmYT7gcVWek-14" value="Conv" style="rounded=0;whiteSpace=wrap;html=1;fillColor=#FFF2CC;" vertex="1" parent="1">
          <mxGeometry x="360" y="240" width="120" height="40" as="geometry" />
        </mxCell>
        <mxCell id="SeMHUKeHQdmYT7gcVWek-15" value="" style="edgeStyle=orthogonalEdgeStyle;rounded=0;orthogonalLoop=1;jettySize=auto;html=1;entryX=0.5;entryY=0;entryDx=0;entryDy=0;" edge="1" parent="1" source="SeMHUKeHQdmYT7gcVWek-16" target="SeMHUKeHQdmYT7gcVWek-10">
          <mxGeometry x="540" y="100" as="geometry" />
        </mxCell>
        <mxCell id="SeMHUKeHQdmYT7gcVWek-16" value="x" style="text;html=1;strokeColor=none;align=center;verticalAlign=middle;whiteSpace=wrap;rounded=0;fillColor=#FF3333;" vertex="1" parent="1">
          <mxGeometry x="400" y="80" width="40" height="20" as="geometry" />
        </mxCell>
        <mxCell id="SeMHUKeHQdmYT7gcVWek-17" value="add" style="rounded=0;whiteSpace=wrap;html=1;" vertex="1" parent="1">
          <mxGeometry x="360" y="320" width="120" height="40" as="geometry" />
        </mxCell>
        <mxCell id="SeMHUKeHQdmYT7gcVWek-18" value="" style="endArrow=classic;html=1;exitX=1;exitY=0.5;exitDx=0;exitDy=0;entryX=1;entryY=0.5;entryDx=0;entryDy=0;" edge="1" parent="1" source="SeMHUKeHQdmYT7gcVWek-16" target="SeMHUKeHQdmYT7gcVWek-17">
          <mxGeometry x="560" y="90" width="50" height="50" as="geometry">
            <mxPoint x="390" y="450" as="sourcePoint" />
            <mxPoint x="480" y="350" as="targetPoint" />
            <Array as="points">
              <mxPoint x="500" y="90" />
              <mxPoint x="500" y="340" />
            </Array>
          </mxGeometry>
        </mxCell>
        <mxCell id="SeMHUKeHQdmYT7gcVWek-19" value="Bottleneck" style="text;html=1;strokeColor=none;fillColor=none;align=center;verticalAlign=middle;whiteSpace=wrap;rounded=0;" vertex="1" parent="1">
          <mxGeometry x="400" y="370" width="40" height="20" as="geometry" />
        </mxCell>
        <mxCell id="SeMHUKeHQdmYT7gcVWek-20" value="" style="rounded=0;whiteSpace=wrap;html=1;fillColor=#A9C4EB;" vertex="1" parent="1">
          <mxGeometry x="600" y="120" width="360" height="360" as="geometry" />
        </mxCell>
        <mxCell id="SeMHUKeHQdmYT7gcVWek-21" value="Conv" style="rounded=0;whiteSpace=wrap;html=1;fillColor=#FFF2CC;" vertex="1" parent="1">
          <mxGeometry x="800" y="160" width="120" height="40" as="geometry" />
        </mxCell>
        <mxCell id="SeMHUKeHQdmYT7gcVWek-22" value="" style="edgeStyle=orthogonalEdgeStyle;rounded=0;orthogonalLoop=1;jettySize=auto;html=1;" edge="1" parent="1" source="SeMHUKeHQdmYT7gcVWek-23" target="SeMHUKeHQdmYT7gcVWek-25">
          <mxGeometry x="820" y="200" as="geometry" />
        </mxCell>
        <mxCell id="SeMHUKeHQdmYT7gcVWek-23" value="Conv" style="rounded=0;whiteSpace=wrap;html=1;fillColor=#FFF2CC;" vertex="1" parent="1">
          <mxGeometry x="640" y="160" width="120" height="40" as="geometry" />
        </mxCell>
        <mxCell id="SeMHUKeHQdmYT7gcVWek-24" value="" style="edgeStyle=orthogonalEdgeStyle;rounded=0;orthogonalLoop=1;jettySize=auto;html=1;" edge="1" parent="1" source="SeMHUKeHQdmYT7gcVWek-25" target="SeMHUKeHQdmYT7gcVWek-27">
          <mxGeometry x="820" y="280" as="geometry" />
        </mxCell>
        <mxCell id="SeMHUKeHQdmYT7gcVWek-25" value="&lt;font color=&quot;#ff0000&quot;&gt;N&lt;/font&gt; * Bottleneck" style="rounded=0;whiteSpace=wrap;html=1;fillColor=#E6D0DE;" vertex="1" parent="1">
          <mxGeometry x="640" y="240" width="120" height="40" as="geometry" />
        </mxCell>
        <mxCell id="SeMHUKeHQdmYT7gcVWek-26" value="" style="edgeStyle=orthogonalEdgeStyle;rounded=0;orthogonalLoop=1;jettySize=auto;html=1;" edge="1" parent="1" source="SeMHUKeHQdmYT7gcVWek-27" target="SeMHUKeHQdmYT7gcVWek-28">
          <mxGeometry x="820" y="360" as="geometry" />
        </mxCell>
        <mxCell id="SeMHUKeHQdmYT7gcVWek-27" value="torch.cat" style="rounded=0;whiteSpace=wrap;html=1;" vertex="1" parent="1">
          <mxGeometry x="640" y="320" width="120" height="40" as="geometry" />
        </mxCell>
        <mxCell id="SeMHUKeHQdmYT7gcVWek-28" value="Conv" style="rounded=0;whiteSpace=wrap;html=1;fillColor=#FFF2CC;" vertex="1" parent="1">
          <mxGeometry x="640" y="400" width="120" height="40" as="geometry" />
        </mxCell>
        <mxCell id="SeMHUKeHQdmYT7gcVWek-29" value="x" style="text;html=1;strokeColor=none;align=center;verticalAlign=middle;whiteSpace=wrap;rounded=0;fillColor=#FF3333;" vertex="1" parent="1">
          <mxGeometry x="760" y="80" width="40" height="20" as="geometry" />
        </mxCell>
        <mxCell id="SeMHUKeHQdmYT7gcVWek-30" value="" style="endArrow=classic;html=1;exitX=0.5;exitY=1;exitDx=0;exitDy=0;entryX=1;entryY=0.5;entryDx=0;entryDy=0;" edge="1" parent="1" source="SeMHUKeHQdmYT7gcVWek-21" target="SeMHUKeHQdmYT7gcVWek-27">
          <mxGeometry x="880" y="200" width="50" height="50" as="geometry">
            <mxPoint x="920" y="170" as="sourcePoint" />
            <mxPoint x="970" y="120" as="targetPoint" />
            <Array as="points">
              <mxPoint x="860" y="340" />
            </Array>
          </mxGeometry>
        </mxCell>
        <mxCell id="SeMHUKeHQdmYT7gcVWek-31" value="" style="endArrow=classic;html=1;exitX=1;exitY=0.5;exitDx=0;exitDy=0;entryX=0.5;entryY=0;entryDx=0;entryDy=0;" edge="1" parent="1" source="SeMHUKeHQdmYT7gcVWek-29" target="SeMHUKeHQdmYT7gcVWek-21">
          <mxGeometry x="920" y="90" width="50" height="50" as="geometry">
            <mxPoint x="920" y="170" as="sourcePoint" />
            <mxPoint x="970" y="120" as="targetPoint" />
            <Array as="points">
              <mxPoint x="860" y="90" />
            </Array>
          </mxGeometry>
        </mxCell>
        <mxCell id="SeMHUKeHQdmYT7gcVWek-32" value="" style="endArrow=classic;html=1;exitX=0;exitY=0.5;exitDx=0;exitDy=0;entryX=0.5;entryY=0;entryDx=0;entryDy=0;" edge="1" parent="1" source="SeMHUKeHQdmYT7gcVWek-29" target="SeMHUKeHQdmYT7gcVWek-23">
          <mxGeometry x="820" y="90" width="50" height="50" as="geometry">
            <mxPoint x="920" y="170" as="sourcePoint" />
            <mxPoint x="970" y="120" as="targetPoint" />
            <Array as="points">
              <mxPoint x="700" y="90" />
            </Array>
          </mxGeometry>
        </mxCell>
        <mxCell id="SeMHUKeHQdmYT7gcVWek-33" value="C3" style="text;html=1;strokeColor=none;fillColor=none;align=center;verticalAlign=middle;whiteSpace=wrap;rounded=0;" vertex="1" parent="1">
          <mxGeometry x="770" y="450" width="40" height="20" as="geometry" />
        </mxCell>
      </root>
    </mxGraphModel>
  </diagram>
</mxfile>
